{"glyphs":{":":{"x_min":0,"x_max":256,"ha":256,"o":""},"$":{"x_min":0,"x_max":440,"ha":440,"o":"m 209 573 l 248 577 l 246 520 q 315 519 379 502 l 382 500 l 358 372 l 340 369 l 312 469 q 280 481 246 483 l 241 303 q 285 285 311 272 q 338 260 359 243 q 380 226 393 203 q 406 180 406 148 q 406 82 361 39 q 315 -4 234 -11 l 233 -74 l 195 -78 l 196 -13 q 120 -10 47 13 l 44 17 l 64 157 l 85 161 l 113 44 q 152 29 197 26 l 202 223 q 167 238 141 250 q 115 263 94 281 q 72 299 59 324 q 46 349 46 383 q 46 441 90 477 q 134 513 208 519 z m 235 28 q 322 41 322 119 q 322 174 239 208 z m 208 481 q 128 471 128 409 q 128 353 204 319 z"},"?":{"x_min":0,"x_max":435,"ha":435,"o":"m 221 103 q 246 103 262 87 q 279 71 279 45 q 279 19 262 2 q 246 -14 221 -14 q 194 -14 178 2 q 162 19 162 45 q 162 71 178 87 q 194 103 221 103 z m 223 189 q 194 215 169 249 q 144 282 144 297 q 144 311 151 325 q 158 339 170 354 q 181 369 196 384 q 210 398 226 414 q 243 430 259 447 q 274 463 287 480 q 299 497 307 514 q 314 530 314 547 q 314 589 287 613 q 259 638 213 638 q 181 638 148 624 l 116 512 l 97 509 l 68 646 q 150 678 225 678 q 306 678 353 642 q 400 605 400 538 q 400 511 392 489 q 383 466 369 446 q 355 426 338 408 q 321 390 304 374 q 289 359 275 346 q 261 332 250 319 q 239 305 232 291 q 226 276 226 262 q 226 235 244 203 z"},"<":{"x_min":0,"x_max":552,"ha":552,"o":"m 45 255 l 506 450 l 506 388 l 116 225 l 506 62 l 506 0 l 45 196 z"},"'":{"x_min":0,"x_max":198,"ha":198,"o":"m 49 726 l 145 726 l 101 489 l 69 489 z"},"=":{"x_min":0,"x_max":552,"ha":552,"o":"m 45 338 l 506 338 l 506 279 l 45 279 z m 45 172 l 506 172 l 506 113 l 45 113 z"},"a":{"x_min":0,"x_max":480,"ha":480,"o":"m 301 221 q 194 221 155 200 q 116 179 116 129 q 116 83 142 64 q 168 44 212 44 q 263 44 300 62 z m 64 422 q 160 464 233 464 q 308 464 349 425 q 391 386 391 312 l 388 109 q 388 84 389 69 q 391 54 398 46 q 405 38 419 34 q 434 31 458 31 l 460 12 q 439 3 409 -5 q 378 -13 368 -13 q 320 -13 303 36 q 234 -14 174 -14 q 106 -14 65 20 q 23 53 23 114 q 23 189 91 225 q 158 261 301 261 l 302 299 q 302 354 274 380 q 246 406 187 406 q 143 406 76 390 z"},"L":{"x_min":0,"x_max":556,"ha":556,"o":"m 218 548 l 218 151 q 218 97 219 44 l 457 44 l 519 173 l 541 177 l 530 2 l 527 -1 q 401 0 293 0 l 171 0 q 112 0 50 -1 l 48 20 l 108 38 q 120 41 121 53 q 122 72 122 96 q 122 121 122 150 l 122 546 q 122 571 122 591 q 122 611 121 627 q 121 640 109 644 l 49 663 l 48 684 q 111 682 169 682 q 228 682 290 684 l 292 663 l 231 645 q 220 642 219 629 q 218 612 218 580 q 218 547 218 548 z"},"3":{"x_min":0,"x_max":457,"ha":457,"o":"m 103 162 q 190 171 243 208 q 295 244 295 301 q 295 347 261 376 q 227 405 174 405 q 105 405 35 368 l 15 400 q 111 464 213 464 q 289 464 341 427 q 393 391 393 332 q 393 224 232 170 l 232 168 q 324 165 376 122 q 427 79 427 16 q 427 -85 320 -151 q 212 -218 10 -225 l 5 -188 q 166 -178 245 -126 q 325 -75 325 2 q 325 63 284 98 q 242 132 168 132 q 140 132 106 126 z"},";":{"x_min":0,"x_max":256,"ha":256,"o":""},"J":{"x_min":0,"x_max":312,"ha":312,"o":"m 41 684 q 104 682 162 682 q 220 682 282 684 l 285 663 l 224 645 q 212 642 211 629 q 210 612 210 592 q 210 572 210 548 l 210 105 q 210 58 206 18 q 203 -21 193 -52 q 184 -83 167 -107 q 150 -131 125 -150 q 99 -168 62 -183 q 25 -197 -25 -208 l -32 -184 q 19 -163 48 -137 q 77 -111 92 -78 q 106 -44 111 -3 q 115 39 115 91 l 115 546 q 115 571 115 591 q 114 611 114 627 q 113 640 102 644 l 42 663 z"},"V":{"x_min":0,"x_max":671,"ha":671,"o":"m 306 -4 l 88 585 q 77 617 67 630 q 57 643 37 649 l -8 663 l -9 684 q 40 682 104 682 q 170 682 241 684 l 243 663 l 197 649 q 187 647 183 642 q 178 638 178 629 q 178 619 183 603 q 188 586 198 561 l 355 121 l 527 560 q 537 587 543 603 q 549 620 549 629 q 549 638 544 642 q 540 646 530 649 l 485 661 l 484 684 q 537 682 591 682 q 646 682 695 684 l 697 663 l 648 647 q 631 642 622 631 q 613 619 599 585 l 355 0 z"},"\"":{"x_min":0,"x_max":359,"ha":359,"o":""},"7":{"x_min":0,"x_max":483,"ha":483,"o":"m 109 -197 l 395 375 l 83 375 l 55 279 l 35 275 l 27 449 l 30 453 q 88 452 143 452 q 197 451 250 451 l 277 451 q 330 451 378 452 q 427 452 472 453 l 474 432 q 448 380 423 325 q 397 270 372 213 q 348 157 324 101 q 301 46 280 -7 q 260 -59 242 -107 q 225 -155 212 -195 l 112 -200 z"},"S":{"x_min":0,"x_max":510,"ha":510,"o":"m 371 639 q 320 656 277 656 q 212 656 174 625 q 136 594 136 538 q 136 506 149 482 q 163 458 185 440 q 208 422 237 408 q 266 394 296 380 q 330 366 362 349 q 394 333 419 311 q 445 289 460 258 q 476 228 476 187 q 476 89 407 38 q 339 -13 219 -13 q 141 -13 47 13 l 44 17 l 68 183 l 90 187 l 124 48 q 176 27 230 27 q 303 27 344 60 q 384 92 384 151 q 384 183 371 206 q 358 230 336 247 q 313 264 285 278 q 257 292 227 306 q 192 320 160 337 q 128 354 102 377 q 76 400 60 433 q 44 466 44 510 q 44 598 111 646 q 177 695 286 695 q 363 695 448 677 l 451 673 l 422 521 l 403 518 z"},"}":{"x_min":0,"x_max":352,"ha":352,"o":"m 312 283 q 269 275 249 256 q 228 236 228 179 l 228 -39 q 228 -112 192 -146 q 156 -179 57 -178 l 56 -156 q 90 -148 109 -138 q 127 -128 136 -114 q 145 -100 146 -80 q 147 -60 147 -32 l 147 130 q 147 204 167 239 q 187 274 237 290 l 237 293 q 187 309 167 344 q 147 379 147 453 l 147 615 q 147 643 146 663 q 145 683 136 697 q 127 711 109 721 q 90 731 57 739 l 56 761 q 156 762 192 729 q 228 695 228 622 l 228 404 q 228 347 249 327 q 269 308 312 300 z"},"Z":{"x_min":0,"x_max":577,"ha":577,"o":"m 35 -1 l 33 20 l 410 638 l 122 638 l 85 521 l 66 518 l 41 680 l 44 684 q 166 682 275 682 l 390 682 q 459 682 530 684 l 532 663 l 156 44 l 454 44 l 519 176 l 541 179 l 528 2 l 525 -1 q 388 0 281 0 l 163 0 q 95 0 35 -1 z"},"x":{"x_min":0,"x_max":480,"ha":480,"o":"m 13 453 q 75 451 124 451 q 161 451 216 453 l 218 433 l 175 421 q 206 368 259 283 q 311 360 350 420 l 309 433 l 306 453 q 347 451 379 451 q 422 451 459 453 l 462 433 l 416 420 q 403 417 392 402 q 341 334 281 247 q 345 144 406 51 q 416 37 432 32 l 474 19 l 476 -1 q 415 0 366 0 q 329 0 273 -1 l 271 19 l 314 30 q 275 91 221 178 q 167 100 123 31 l 165 19 l 167 -1 q 126 0 95 0 q 52 0 8 -1 l 6 19 l 54 31 q 69 36 83 53 q 136 125 198 216 q 136 316 84 398 q 74 414 58 419 l 15 433 z"},")":{"x_min":0,"x_max":369,"ha":369,"o":"m 70 767 q 291 580 291 292 q 291 3 70 -184 l 49 -166 q 205 8 205 291 q 205 575 49 749 z"},"&":{"x_min":0,"x_max":677,"ha":677,"o":"m 428 380 q 456 379 484 379 q 511 378 540 378 q 565 378 587 379 q 608 379 628 380 l 629 359 l 568 344 q 559 341 560 333 q 563 308 563 287 q 563 185 513 112 q 545 67 572 46 q 598 25 633 25 q 647 25 663 28 l 667 6 q 624 -16 578 -16 q 500 -16 446 50 q 363 -14 262 -14 q 168 -14 104 35 q 39 84 39 167 q 39 281 181 355 q 127 417 113 454 q 98 490 98 528 q 98 598 147 640 q 196 682 270 682 q 334 682 378 646 q 422 610 422 548 q 422 447 282 377 l 480 149 q 513 206 513 279 q 513 309 510 327 q 508 336 504 340 q 499 344 490 346 l 429 358 z m 204 327 q 135 270 135 184 q 135 117 176 77 q 216 38 289 38 q 359 38 417 83 z m 260 402 q 341 464 341 545 q 341 589 318 615 q 295 642 261 642 q 225 642 202 619 q 180 596 180 557 q 180 493 237 429 z"},"_":{"x_min":0,"x_max":500,"ha":500,"o":"m 500 -131 l 0 -131 l 0 -87 l 500 -87 z"},"v":{"x_min":0,"x_max":483,"ha":483,"o":"m -15 453 q 46 451 94 451 q 138 451 200 453 l 202 433 l 145 417 q 185 303 238 175 q 251 142 262 111 q 273 142 287 175 q 332 284 380 417 l 325 433 l 323 453 q 362 451 405 451 q 449 451 490 453 l 492 433 l 443 418 q 432 415 424 399 q 386 310 335 187 q 284 63 258 -3 l 216 -8 q 189 63 139 186 q 88 309 52 397 q 44 414 31 419 l -14 433 z"},"O":{"x_min":0,"x_max":804,"ha":804,"o":"m 156 350 q 156 191 220 106 q 285 21 409 21 q 532 21 590 98 q 648 175 648 340 q 648 494 586 577 q 524 660 395 660 q 270 660 213 583 q 156 506 156 350 z m 756 356 q 756 188 660 85 q 564 -18 392 -18 q 228 -18 138 77 q 49 172 49 334 q 49 503 145 601 q 242 700 413 700 q 577 700 666 608 q 756 516 756 356 z"},"(":{"x_min":0,"x_max":369,"ha":369,"o":"m 299 -184 q 78 3 78 291 q 78 580 299 767 l 320 749 q 164 575 164 292 q 164 8 320 -166 z"},"C":{"x_min":0,"x_max":651,"ha":651,"o":"m 575 513 l 556 510 l 520 639 q 459 654 410 654 q 291 654 222 570 q 154 487 154 354 q 154 211 232 126 q 310 41 448 41 q 526 41 612 71 l 617 49 q 521 -18 399 -18 q 242 -18 145 79 q 48 175 48 332 q 48 500 155 597 q 261 695 433 695 q 516 695 602 675 l 605 671 z"},"W":{"x_min":0,"x_max":1020,"ha":1020,"o":"m 684 -4 l 512 516 l 333 0 l 284 -4 l 88 596 q 81 619 71 631 q 61 644 42 649 l -2 663 l -3 684 q 45 682 110 682 q 169 682 244 684 l 246 663 l 200 649 q 190 647 186 642 q 181 637 181 628 q 181 618 186 602 q 190 586 198 561 l 331 141 l 512 683 l 556 686 l 732 136 l 870 560 q 878 588 883 604 q 888 621 888 630 q 888 639 884 643 q 879 646 870 649 l 824 661 l 823 684 q 875 682 930 682 q 982 682 1032 684 l 1034 663 l 985 647 q 970 643 962 633 q 953 624 945 601 l 733 0 z"},"A":{"x_min":0,"x_max":674,"ha":674,"o":"m 368 694 l 585 97 q 597 63 607 51 q 617 39 636 33 l 682 20 l 683 -1 q 619 0 564 0 q 508 0 433 -1 l 431 20 l 477 33 q 487 37 491 41 q 495 45 495 54 q 495 63 490 79 q 485 95 476 122 l 430 252 l 194 252 l 143 122 q 133 95 127 79 q 121 62 121 53 q 121 45 126 41 q 130 37 140 34 l 185 21 l 186 -1 q 117 0 73 0 q 29 0 -25 -1 l -28 20 l 21 35 q 40 41 49 53 q 58 65 68 91 l 318 687 z m 212 297 l 414 297 l 318 566 z"},"f":{"x_min":0,"x_max":310,"ha":310,"o":"m 188 399 l 188 134 q 188 88 189 54 q 190 41 202 37 l 264 19 l 265 -1 q 191 0 144 0 q 96 0 30 -1 l 28 19 l 83 34 q 96 39 97 50 q 98 81 98 114 l 98 402 l 31 418 l 28 439 l 98 445 l 98 447 q 98 584 158 660 q 218 736 318 736 q 368 736 414 724 q 397 664 385 601 l 365 597 l 333 695 q 322 696 305 696 q 249 696 218 646 q 188 596 188 462 l 188 446 l 310 446 l 310 399 z"},"Q":{"x_min":0,"x_max":804,"ha":804,"o":"m 756 356 q 756 197 673 99 q 590 1 455 -14 q 495 -127 659 -127 q 726 -127 778 -106 l 784 -128 q 683 -209 625 -209 q 440 -209 389 -18 q 228 -18 138 77 q 49 171 49 334 q 49 502 145 601 q 242 700 413 700 q 577 700 666 608 q 756 516 756 356 z m 156 350 q 156 191 220 106 q 285 21 409 21 q 532 21 590 98 q 648 175 648 340 q 648 494 586 577 q 524 660 395 660 q 270 660 213 583 q 156 506 156 350 z"},"w":{"x_min":0,"x_max":732,"ha":732,"o":"m -8 453 q 62 451 95 451 q 144 451 205 453 l 207 433 l 149 417 q 182 308 231 172 q 242 143 251 113 q 261 143 271 171 q 311 276 331 334 q 351 393 369 449 l 405 453 q 423 394 443 335 q 462 276 499 172 q 511 141 519 113 q 528 141 540 171 q 594 309 629 417 l 574 433 l 572 453 q 611 452 655 452 q 699 452 734 453 l 737 433 l 698 422 q 681 417 673 399 q 627 288 592 199 q 556 110 515 -1 l 471 -5 q 441 81 421 135 q 401 188 378 252 q 369 278 362 302 q 354 278 344 253 q 319 188 298 134 q 277 79 249 -1 l 206 -5 q 164 110 130 199 q 96 288 53 399 q 46 417 28 422 l -7 433 z"},"-":{"x_min":0,"x_max":359,"ha":359,"o":"m 44 274 l 315 274 l 315 211 l 44 211 z"},"E":{"x_min":0,"x_max":581,"ha":581,"o":"m 169 682 l 288 682 q 397 682 519 684 l 521 680 l 493 529 l 474 525 l 443 638 l 218 638 l 218 370 l 262 370 q 313 370 375 371 q 388 371 392 383 l 409 449 l 436 450 q 434 382 434 349 q 434 317 436 250 l 409 248 l 392 314 q 388 327 376 328 q 313 329 262 329 l 218 329 l 218 151 q 218 97 219 44 l 453 44 l 513 168 l 535 172 l 524 2 l 521 -1 q 394 0 287 0 l 171 0 q 112 0 50 -1 l 48 20 l 108 38 q 120 41 121 53 q 122 72 122 96 q 122 121 122 150 l 122 546 q 122 571 122 591 q 122 611 121 627 q 121 640 109 644 l 49 663 l 48 684 q 111 682 169 682 z"},"s":{"x_min":0,"x_max":405,"ha":405,"o":"m 279 415 q 250 422 217 422 q 171 422 143 405 q 115 387 115 356 q 115 326 134 309 q 152 292 202 275 l 242 262 q 309 239 341 209 q 372 180 372 132 q 372 64 319 25 q 267 -14 186 -14 q 112 -14 34 17 q 51 80 61 141 l 80 144 l 115 39 q 143 28 186 28 q 231 28 259 46 q 286 65 286 99 q 286 130 267 148 q 249 166 209 179 l 158 196 q 92 218 67 249 q 42 280 42 326 q 42 390 91 427 q 139 464 219 464 q 293 464 354 442 q 340 387 329 325 l 310 321 z"},">":{"x_min":0,"x_max":552,"ha":552,"o":"m 506 196 l 45 0 l 45 62 l 436 225 l 45 388 l 45 450 l 506 255 z"},"l":{"x_min":0,"x_max":281,"ha":281,"o":"m 27 685 l 25 701 q 111 718 184 736 l 188 732 q 186 652 186 511 l 186 193 q 186 105 187 52 q 188 38 200 35 l 253 19 l 255 -1 q 189 0 141 0 q 93 0 28 -1 l 26 19 l 81 35 q 93 39 94 50 q 95 105 95 173 l 95 374 q 95 556 93 666 z"},"8":{"x_min":0,"x_max":537,"ha":537,"o":"m 191 342 q 121 379 95 416 q 69 452 69 501 q 69 574 130 622 q 190 669 280 669 q 361 669 414 631 q 467 593 467 533 q 467 442 338 368 q 436 320 471 278 q 506 235 506 176 q 506 94 434 41 q 362 -13 263 -13 q 163 -13 99 33 q 36 79 36 154 q 36 268 191 342 z m 226 324 q 125 267 125 166 q 125 102 164 64 q 202 26 269 26 q 330 26 371 60 q 413 94 413 148 q 413 200 375 238 q 337 275 226 324 z m 302 386 q 380 442 380 518 q 380 572 349 602 q 317 631 266 631 q 214 631 181 604 q 148 578 148 531 q 148 485 184 454 q 220 423 302 386 z"},"\\":{"x_min":0,"x_max":403,"ha":403,"o":"m 291 -110 l 44 696 l 103 696 l 349 -110 z"},"e":{"x_min":0,"x_max":479,"ha":479,"o":"m 440 35 q 399 9 355 -2 q 311 -14 273 -14 q 166 -14 102 48 q 38 109 38 218 q 38 326 99 395 q 161 464 263 464 q 349 464 397 412 q 445 361 445 270 q 445 256 443 242 l 134 242 q 134 137 183 92 q 232 47 337 47 q 384 47 438 56 z m 348 283 l 348 297 q 348 367 325 396 q 303 426 259 426 q 201 426 170 384 q 140 342 136 283 z"},"b":{"x_min":0,"x_max":557,"ha":557,"o":"m 176 42 q 215 29 256 29 q 338 29 379 79 q 420 129 420 223 q 420 309 382 357 q 344 405 270 405 q 222 405 176 383 z m 179 732 q 176 659 176 512 l 176 413 q 254 464 320 464 q 412 464 465 402 q 518 341 518 242 q 518 121 449 54 q 381 -13 259 -13 q 178 -13 84 15 q 85 77 85 174 l 85 464 q 85 572 83 666 l 18 685 l 15 701 q 95 716 174 736 z"},"%":{"x_min":0,"x_max":821,"ha":821,"o":""},"m":{"x_min":0,"x_max":866,"ha":866,"o":"m 477 369 q 483 345 483 316 l 483 142 q 483 84 484 50 q 485 37 497 33 l 546 19 l 547 -1 q 488 0 440 0 q 392 0 333 -1 l 332 19 l 378 32 q 392 37 393 48 q 393 55 393 79 l 393 292 q 393 352 366 378 q 338 404 285 404 q 237 404 188 375 l 188 162 q 188 101 189 50 q 189 36 199 34 l 251 19 l 252 -1 q 191 0 144 0 q 96 0 30 -1 l 28 19 l 84 35 q 97 39 97 50 q 98 76 98 110 l 98 277 q 98 341 96 396 l 31 413 l 28 430 q 109 445 183 464 l 188 460 l 188 404 q 268 464 339 464 q 427 464 466 396 q 543 464 634 464 q 702 464 740 426 q 778 387 778 316 l 778 143 q 778 82 779 52 q 780 39 792 35 l 847 19 l 848 -1 q 783 0 735 0 q 687 0 629 -1 l 627 19 l 675 33 q 687 37 688 48 q 688 55 688 79 l 688 292 q 688 352 661 378 q 633 404 579 404 q 524 404 477 369 z"},"#":{"x_min":0,"x_max":552,"ha":552,"o":"m 153 -5 l 96 -5 l 125 186 l 27 186 l 27 242 l 134 242 l 155 384 l 57 384 l 57 440 l 164 440 l 193 632 l 250 632 l 221 440 l 362 440 l 391 632 l 448 632 l 419 440 l 518 440 l 518 384 l 410 384 l 389 242 l 487 242 l 487 186 l 380 186 l 352 -5 l 294 -5 l 323 186 l 182 186 z m 191 242 l 332 242 l 354 384 l 212 384 z"},",":{"x_min":0,"x_max":256,"ha":256,"o":"m 44 -136 q 114 -80 114 -25 q 114 22 64 51 q 64 79 80 95 q 97 111 123 111 q 152 111 170 89 q 188 67 188 33 q 188 -20 156 -67 q 125 -114 63 -158 z"},"n":{"x_min":0,"x_max":582,"ha":582,"o":"m 28 430 q 110 445 183 464 l 188 460 l 188 404 q 273 464 346 464 q 416 464 455 425 q 494 386 494 315 l 494 143 q 494 82 495 52 q 496 39 508 35 l 562 19 l 563 -1 q 499 0 451 0 q 403 0 344 -1 l 342 19 l 391 33 q 402 37 403 48 q 404 55 404 79 l 404 292 q 404 352 375 378 q 346 404 290 404 q 241 404 188 375 l 188 162 q 188 101 189 50 q 189 37 200 34 l 251 19 l 252 -1 q 191 0 144 0 q 96 0 30 -1 l 28 19 l 86 35 q 97 40 97 50 q 98 82 98 110 l 98 277 q 98 341 96 396 l 31 413 z"},"h":{"x_min":0,"x_max":580,"ha":580,"o":"m 25 701 q 104 717 184 736 l 188 732 q 186 686 186 601 q 186 516 186 409 q 271 464 344 464 q 412 464 452 426 q 492 388 492 315 l 492 143 q 492 86 493 52 q 493 40 505 35 l 560 19 l 561 -1 q 496 0 448 0 q 400 0 342 -1 l 340 19 l 388 33 q 400 37 401 48 q 401 55 401 79 l 401 292 q 401 352 373 378 q 344 404 288 404 q 239 404 186 380 l 186 161 q 186 101 187 50 q 187 37 199 33 l 250 19 l 250 -1 q 189 0 141 0 q 93 0 28 -1 l 26 19 l 81 35 q 94 39 94 50 q 95 97 95 170 l 95 374 q 95 474 95 550 q 95 627 93 666 l 27 685 z"},"z":{"x_min":0,"x_max":480,"ha":480,"o":"m 34 4 q 117 124 172 206 q 227 287 311 413 l 120 413 l 88 315 l 68 312 q 57 388 44 448 l 45 453 q 145 451 238 451 q 332 451 433 453 l 437 447 q 366 343 301 246 q 236 149 164 39 l 358 39 l 419 141 l 439 144 q 432 75 428 2 l 425 -1 q 340 0 227 0 q 123 0 37 -1 z"},"B":{"x_min":0,"x_max":597,"ha":597,"o":"m 48 684 q 111 682 170 682 q 193 683 243 685 q 293 687 311 687 q 417 687 470 647 q 524 607 524 532 q 524 412 395 369 q 471 356 514 312 q 557 269 557 202 q 557 104 486 51 q 416 -3 290 -3 q 265 -3 236 -1 q 207 0 171 0 q 112 0 50 -1 l 48 20 l 108 38 q 120 41 121 53 q 122 72 122 96 q 122 121 122 150 l 122 546 q 122 571 122 591 q 122 611 121 627 q 121 640 109 644 l 49 663 z m 217 340 l 217 43 q 231 38 251 37 q 270 35 286 35 q 367 35 409 75 q 452 115 452 191 q 452 268 409 304 q 366 341 271 341 q 243 341 217 340 z m 217 379 q 247 378 278 378 q 351 378 387 413 q 424 448 424 515 q 424 584 386 615 q 349 646 277 646 q 265 646 250 645 q 234 644 217 642 z"},"K":{"x_min":0,"x_max":659,"ha":659,"o":"m 218 548 l 218 150 q 218 121 218 97 q 218 73 219 53 q 219 41 231 37 l 286 20 l 287 -1 q 229 0 171 0 q 112 0 50 -1 l 48 20 l 108 38 q 121 42 121 53 q 122 72 122 96 q 122 121 122 150 l 122 546 q 122 571 122 591 q 122 611 121 627 q 121 640 109 644 l 49 663 l 48 684 q 111 682 169 682 q 227 682 285 684 l 287 663 l 231 646 q 220 643 219 630 q 218 613 218 592 q 218 572 218 548 z m 230 346 l 427 565 q 450 591 464 609 q 479 626 479 637 q 479 647 465 650 l 425 661 l 424 684 q 473 682 532 682 q 589 682 640 684 l 642 663 l 592 647 q 570 640 553 625 q 537 609 519 589 l 323 374 l 545 81 q 560 62 573 51 q 587 40 609 33 l 653 20 l 654 -1 q 613 0 550 0 q 534 0 517 0 q 500 0 482 -1 q 465 34 392 131 z"},"R":{"x_min":0,"x_max":631,"ha":631,"o":"m 218 150 q 218 121 218 97 q 218 74 219 55 q 219 40 231 36 l 286 20 l 287 -1 q 229 0 171 0 q 112 0 50 -1 l 48 20 l 108 38 q 120 41 121 53 q 122 72 122 96 q 122 121 122 150 l 122 546 q 122 571 122 591 q 122 611 121 627 q 121 640 109 644 l 49 663 l 48 684 q 111 682 170 682 q 182 682 200 682 q 218 683 244 684 q 271 685 288 686 q 306 686 316 686 q 427 686 483 644 q 539 602 539 521 q 539 449 500 404 q 462 358 384 334 q 415 287 441 243 q 467 200 489 163 q 511 127 530 99 q 548 71 564 55 q 573 47 581 41 q 589 35 598 31 q 607 27 617 24 q 627 21 640 18 l 641 -3 q 606 -8 582 -8 q 562 -8 547 -7 q 532 -6 520 -3 q 508 0 499 5 q 489 9 480 17 q 460 32 441 60 q 421 89 401 125 q 380 161 357 202 q 335 243 310 282 q 303 293 298 300 q 292 307 286 311 q 280 315 272 316 q 264 318 251 318 l 218 319 z m 218 356 q 248 354 273 354 q 357 354 397 390 q 436 426 436 503 q 436 577 398 611 q 361 646 281 646 q 267 646 251 645 q 236 644 218 642 z"},"T":{"x_min":0,"x_max":613,"ha":613,"o":"m 308 0 q 248 0 175 -1 l 173 20 l 245 41 q 257 44 258 56 q 259 93 259 151 l 259 638 l 86 638 l 43 508 l 23 505 l 11 680 l 14 684 q 134 682 244 682 l 375 682 q 484 682 605 684 l 608 680 l 578 508 l 558 505 l 527 638 l 354 638 l 354 151 q 354 93 355 56 q 356 44 368 41 l 440 20 l 441 -1 q 366 0 308 0 z"},"P":{"x_min":0,"x_max":582,"ha":582,"o":"m 218 330 q 252 324 285 324 q 363 324 404 365 q 445 405 445 488 q 445 567 406 606 q 367 646 284 646 q 251 646 218 642 z m 218 150 q 218 121 218 97 q 218 74 219 55 q 219 44 231 40 l 299 20 l 300 -1 q 229 0 171 0 q 112 0 50 -1 l 48 20 l 108 38 q 121 42 121 53 q 122 72 122 96 q 122 121 122 150 l 122 546 q 122 571 122 591 q 122 611 121 627 q 121 640 109 644 l 49 663 l 48 684 q 111 682 170 682 q 210 682 248 684 q 285 686 316 686 q 431 686 490 640 q 548 595 548 506 q 548 401 480 343 q 413 285 290 285 q 256 285 218 289 z"},"|":{"x_min":0,"x_max":348,"ha":348,"o":"m 201 745 l 201 -248 l 146 -248 l 146 745 z"},"t":{"x_min":0,"x_max":353,"ha":353,"o":"m 175 399 q 172 234 172 133 q 172 83 187 63 q 202 44 245 44 q 278 44 333 53 l 335 31 q 251 -12 185 -12 q 131 -12 105 17 q 80 45 80 103 q 80 198 83 402 l 16 419 l 13 439 l 88 445 l 122 563 q 149 571 171 578 l 176 574 q 175 515 175 464 l 175 446 l 322 446 l 322 399 z"},"M":{"x_min":0,"x_max":905,"ha":905,"o":"m 675 684 q 721 682 758 682 q 794 682 855 684 l 857 663 l 796 644 q 785 640 784 627 q 783 595 783 546 l 783 150 q 783 92 784 53 q 785 42 798 38 l 856 20 l 857 -1 q 793 0 734 0 q 677 0 621 -1 l 619 20 l 675 37 q 687 40 687 54 q 688 92 688 150 l 688 573 l 446 0 l 410 -4 l 167 573 l 167 150 q 167 92 167 54 q 168 40 180 37 l 235 20 l 236 -1 q 178 0 139 0 q 101 0 38 -1 l 36 20 l 96 38 q 108 42 109 53 q 110 92 110 150 l 110 546 q 110 595 109 627 q 108 640 97 644 l 37 663 l 36 684 q 99 682 135 682 q 177 682 223 684 l 449 148 z"},"g":{"x_min":0,"x_max":508,"ha":508,"o":"m 140 303 q 140 240 166 205 q 191 170 240 170 q 287 170 311 203 q 334 235 334 298 q 334 358 309 393 q 284 427 234 427 q 188 427 164 396 q 140 364 140 303 z m 134 -20 q 101 -69 101 -111 q 101 -154 135 -178 q 170 -202 229 -202 q 300 -202 354 -171 q 407 -139 407 -83 q 407 -52 381 -35 q 354 -18 282 -18 q 256 -18 226 -20 q 195 -21 167 -21 q 151 -21 134 -20 z m 389 402 q 425 362 425 306 q 425 227 371 180 q 316 134 233 134 q 187 134 149 148 q 123 106 123 82 q 123 68 136 64 q 150 59 186 59 q 213 59 250 61 q 287 62 318 62 q 396 62 441 32 q 486 3 486 -55 q 486 -143 404 -194 q 321 -245 215 -245 q 129 -245 77 -216 q 26 -187 26 -140 q 26 -84 105 -14 q 55 5 55 37 q 55 81 125 161 q 49 207 49 295 q 49 371 103 417 q 157 464 242 464 q 265 464 303 458 q 340 451 360 451 q 434 451 496 453 l 499 433 z"},"j":{"x_min":0,"x_max":265,"ha":265,"o":"m 21 430 q 105 446 178 464 l 183 460 q 180 397 180 321 l 180 43 q 180 -53 143 -108 q 106 -164 13 -246 l -9 -226 q 63 -130 77 -85 q 90 -40 90 31 l 90 277 q 90 336 88 396 l 24 413 z m 183 637 q 183 611 167 594 q 150 578 125 578 q 101 578 85 593 q 70 608 70 633 q 70 660 86 675 q 103 690 128 690 q 153 690 168 677 q 183 663 183 637 z"},"i":{"x_min":0,"x_max":283,"ha":283,"o":"m 193 637 q 193 611 177 594 q 161 578 136 578 q 111 578 96 593 q 81 608 81 633 q 81 660 97 675 q 113 690 139 690 q 163 690 178 677 q 193 663 193 637 z m 28 430 q 114 446 187 464 l 191 460 q 188 397 188 321 l 188 133 q 188 75 189 52 q 190 39 201 35 l 258 19 l 259 -1 q 191 0 144 0 q 96 0 30 -1 l 28 19 l 84 35 q 96 39 97 50 q 98 69 98 114 l 98 277 q 98 341 96 396 l 31 413 z"},"y":{"x_min":0,"x_max":481,"ha":481,"o":"m -17 453 q 44 451 92 451 q 125 451 197 453 l 199 433 l 142 417 q 160 366 184 304 q 208 242 234 175 q 246 147 259 111 q 272 148 288 186 q 311 243 333 298 q 354 353 377 417 l 321 433 l 319 453 q 355 451 404 451 q 447 451 488 453 l 491 433 l 445 420 q 430 415 423 400 q 405 358 384 309 q 320 158 287 61 q 264 -4 246 -73 q 228 -142 218 -191 q 214 -215 200 -227 q 187 -240 138 -240 q 87 -240 40 -236 l 38 -217 q 91 -209 117 -183 q 148 -149 214 -3 l 218 6 l 211 8 q 122 230 49 399 q 43 414 27 419 l -16 433 z"},"@":{"x_min":0,"x_max":843,"ha":843,"o":"m 617 419 q 602 371 583 274 l 552 124 q 549 109 549 100 q 549 83 557 75 q 565 67 582 67 q 640 67 688 135 q 736 204 736 288 q 736 409 658 482 q 580 556 463 556 q 312 556 219 456 q 126 356 126 198 q 126 54 215 -36 q 304 -126 449 -126 q 618 -126 747 -5 l 768 -28 q 621 -176 424 -176 q 258 -176 156 -76 q 54 25 54 185 q 54 361 169 476 q 285 592 465 592 q 602 592 694 508 q 787 425 787 293 q 787 188 714 104 q 642 20 551 20 q 515 20 494 38 q 473 56 471 91 q 426 55 398 38 q 370 21 353 21 q 299 21 267 61 q 235 102 235 164 q 235 273 302 349 q 370 425 472 425 q 511 425 562 409 q 585 414 611 423 z m 526 374 q 495 390 465 390 q 403 390 360 326 q 317 262 317 184 q 317 139 334 109 q 350 79 381 79 q 408 79 475 125 z"},".":{"x_min":0,"x_max":256,"ha":256,"o":"m 131 103 q 156 103 173 87 q 189 71 189 45 q 189 19 173 3 q 156 -14 131 -14 q 104 -14 88 3 q 72 19 72 45 q 72 71 88 87 q 104 103 131 103 z"},"p":{"x_min":0,"x_max":560,"ha":560,"o":"m 21 413 l 19 430 q 101 445 173 464 l 178 460 l 178 413 q 253 464 323 464 q 414 464 467 403 q 521 342 521 245 q 521 125 452 56 q 383 -14 256 -14 q 219 -14 178 -6 l 178 -113 q 178 -162 179 -182 q 180 -196 192 -199 l 256 -217 l 258 -237 q 182 -236 134 -236 q 86 -236 21 -237 l 19 -217 l 75 -201 q 86 -197 87 -186 q 88 -150 88 -78 l 88 121 q 88 337 86 395 z m 178 38 q 221 28 260 28 q 341 28 382 79 q 423 130 423 225 q 423 314 384 359 q 345 405 272 405 q 219 405 178 383 z"},"X":{"x_min":0,"x_max":657,"ha":657,"o":"m 9 684 q 63 682 137 682 q 201 682 271 684 l 272 663 l 229 650 q 218 648 214 643 q 209 638 209 631 q 209 619 219 604 q 228 588 239 572 l 345 413 l 434 554 q 441 565 458 591 q 474 617 474 630 q 474 645 454 649 l 411 661 l 410 684 q 463 682 521 682 q 579 682 628 684 l 630 663 l 581 647 q 563 642 551 629 q 539 617 520 589 l 374 371 l 564 88 q 586 55 596 46 q 607 38 623 33 l 667 20 l 668 -1 q 616 0 547 0 q 483 0 407 -1 l 405 20 l 449 31 q 459 34 463 39 q 468 43 468 51 q 468 62 458 78 q 449 94 438 110 l 306 307 l 193 127 q 179 105 167 85 q 155 65 155 52 q 155 44 159 40 q 163 35 173 32 l 217 21 l 218 -1 q 165 0 106 0 q 54 0 -1 -1 l -3 20 l 46 35 q 64 41 76 52 q 87 64 104 87 l 278 349 l 109 600 q 94 624 84 634 q 74 644 55 649 l 10 663 z"},"*":{"x_min":0,"x_max":433,"ha":433,"o":"m 264 700 l 231 546 l 372 607 l 394 539 l 238 522 l 338 409 l 280 366 l 217 508 l 140 377 l 82 419 l 197 524 l 49 557 l 71 626 l 207 548 l 192 700 z"},"Y":{"x_min":0,"x_max":593,"ha":593,"o":"m 326 348 l 439 561 q 451 584 459 601 q 468 618 468 628 q 468 644 446 649 l 402 661 l 401 684 q 454 682 509 682 q 562 682 613 684 l 615 663 l 565 647 q 548 642 538 630 q 529 618 519 601 l 350 300 l 350 151 q 350 122 350 98 q 351 74 351 55 q 352 42 368 38 l 429 20 l 430 -1 q 361 0 304 0 q 245 0 177 -1 l 175 20 l 241 39 q 253 42 254 54 q 254 74 255 98 q 255 122 255 151 l 255 290 l 83 587 q 65 617 53 630 q 42 644 23 649 l -21 663 l -22 684 q 22 682 98 682 q 164 682 234 684 l 236 663 l 190 650 q 180 647 175 643 q 171 638 171 631 q 171 621 178 606 q 186 591 197 572 z"},"c":{"x_min":0,"x_max":461,"ha":461,"o":"m 430 35 q 399 14 355 0 q 310 -14 266 -14 q 161 -14 99 48 q 38 110 38 213 q 38 325 107 394 q 177 464 288 464 q 360 464 427 435 q 411 369 398 301 l 379 298 l 340 415 q 317 423 289 423 q 216 423 175 372 q 134 321 134 238 q 134 140 181 93 q 227 46 328 46 q 374 46 427 55 z"},"!":{"x_min":0,"x_max":275,"ha":275,"o":"m 156 193 l 118 661 l 227 666 l 231 662 l 186 195 z m 171 103 q 196 103 213 87 q 229 71 229 45 q 229 19 213 3 q 196 -14 171 -14 q 144 -14 128 3 q 112 19 112 45 q 112 71 128 87 q 144 103 171 103 z"},"/":{"x_min":0,"x_max":403,"ha":403,"o":"m 54 -110 l 300 696 l 359 696 l 112 -110 z"},"[":{"x_min":0,"x_max":345,"ha":345,"o":"m 180 -125 l 300 -153 l 301 -174 l 107 -174 l 107 756 l 300 756 l 301 735 l 180 708 z"},"6":{"x_min":0,"x_max":541,"ha":541,"o":"m 471 646 q 320 615 245 539 q 170 463 148 353 l 149 352 q 208 417 302 417 q 390 417 449 358 q 509 299 509 209 q 509 113 444 50 q 378 -13 281 -13 q 174 -13 107 65 q 41 143 41 265 q 41 416 145 531 q 248 647 464 680 z m 411 181 q 411 266 372 320 q 332 373 271 373 q 214 373 179 333 q 144 293 144 225 q 144 142 185 82 q 226 22 290 22 q 345 22 378 68 q 411 114 411 181 z"},"r":{"x_min":0,"x_max":383,"ha":383,"o":"m 28 430 q 110 445 183 464 l 188 460 l 188 403 q 278 464 365 464 l 368 461 q 354 388 340 310 l 320 307 q 307 348 294 373 q 281 398 254 398 q 228 398 188 374 l 188 163 q 188 86 189 54 q 189 41 201 37 l 266 19 l 268 -1 q 191 0 144 0 q 96 0 30 -1 l 28 19 l 85 35 q 97 39 97 50 q 98 71 98 110 l 98 277 q 98 356 96 396 l 31 413 z"},"2":{"x_min":0,"x_max":484,"ha":484,"o":"m 424 155 l 445 159 l 436 2 l 432 -1 q 333 0 224 0 q 123 0 38 -1 l 34 39 q 80 68 117 94 q 153 119 180 141 q 207 163 228 182 q 248 202 262 221 q 276 240 283 260 q 291 280 291 302 q 291 347 258 374 q 225 400 178 400 q 122 400 65 370 l 47 402 q 138 464 230 464 q 299 464 344 430 q 390 397 390 337 q 390 300 374 268 q 357 236 325 206 q 293 175 248 143 q 202 112 143 77 l 143 74 l 386 74 z"},"{":{"x_min":0,"x_max":352,"ha":352,"o":"m 39 300 q 83 308 103 327 q 124 347 124 404 l 124 622 q 124 695 160 729 q 196 762 294 761 l 295 739 q 261 731 243 721 q 224 711 216 697 q 207 683 206 663 q 204 643 204 615 l 204 453 q 204 379 185 344 q 165 309 114 293 l 114 290 q 165 274 185 239 q 204 204 204 130 l 204 -32 q 204 -60 206 -80 q 207 -100 216 -114 q 224 -128 243 -138 q 261 -148 294 -156 l 295 -178 q 196 -179 160 -146 q 124 -112 124 -39 l 124 179 q 124 236 103 256 q 83 275 40 283 z"},"9":{"x_min":0,"x_max":546,"ha":546,"o":"m 86 -190 q 209 -168 290 -97 q 371 -25 404 101 l 403 102 q 346 37 254 37 q 163 37 102 95 q 42 153 42 243 q 42 337 108 400 q 174 464 271 464 q 375 464 443 387 q 510 311 510 192 q 510 28 396 -86 q 282 -200 93 -225 z m 141 272 q 141 186 180 133 q 220 80 281 80 q 342 80 375 119 q 407 159 407 229 q 407 314 364 372 q 322 429 262 429 q 209 429 175 386 q 141 344 141 272 z"}," ":{"x_min":0,"x_max":251,"ha":251,"o":""},"I":{"x_min":0,"x_max":340,"ha":340,"o":"m 218 150 q 218 121 218 97 q 218 73 219 53 q 219 41 236 37 l 291 20 l 292 -1 q 229 0 171 0 q 112 0 50 -1 l 48 20 l 108 38 q 120 41 121 53 q 122 72 122 96 q 122 121 122 150 l 122 546 q 122 571 122 591 q 122 611 121 627 q 121 640 109 644 l 49 663 l 48 684 q 111 682 169 682 q 228 682 290 684 l 292 663 l 231 645 q 220 642 219 629 q 218 612 218 592 q 218 572 218 548 z"},"H":{"x_min":0,"x_max":791,"ha":791,"o":"m 218 338 l 218 150 q 218 92 219 53 q 219 40 231 37 l 286 20 l 287 -1 q 229 0 171 0 q 113 0 50 -1 l 48 20 l 108 38 q 121 42 121 53 q 122 92 122 150 l 122 546 q 122 595 121 627 q 121 640 109 644 l 49 663 l 48 684 q 111 682 169 682 q 228 682 285 684 l 287 663 l 231 646 q 219 643 219 630 q 218 595 218 548 l 218 382 l 573 382 l 573 548 q 573 595 572 630 q 572 643 560 646 l 505 663 l 504 684 q 564 682 622 682 q 680 682 741 684 l 743 663 l 682 644 q 670 640 670 627 q 669 595 669 546 l 669 150 q 669 92 670 53 q 670 42 683 38 l 742 20 l 743 -1 q 679 0 620 0 q 562 0 506 -1 l 504 20 l 560 37 q 572 40 572 53 q 573 92 573 150 l 573 338 z"},"4":{"x_min":0,"x_max":531,"ha":531,"o":"m 310 350 q 254 288 199 218 q 144 147 90 73 l 310 73 z m 400 -57 q 400 -125 402 -195 q 355 -200 313 -208 l 309 -204 q 310 -136 310 -65 l 310 24 l 188 24 q 121 24 25 23 l 22 59 q 99 161 181 262 q 263 364 346 460 l 403 464 q 400 354 400 260 l 400 73 l 512 73 l 514 23 q 460 24 400 24 z"},"~":{"x_min":0,"x_max":552,"ha":552,"o":"m 45 243 q 111 286 169 286 q 201 286 230 276 q 260 266 289 254 q 316 243 342 234 q 368 225 396 225 q 442 225 506 267 l 506 208 q 444 167 386 167 q 355 167 325 177 q 295 187 266 199 q 238 209 212 218 q 187 227 159 227 q 111 227 45 184 z"},"D":{"x_min":0,"x_max":751,"ha":751,"o":"m 171 0 q 112 0 50 -1 l 48 20 l 108 38 q 121 42 121 53 q 122 72 122 96 q 122 121 122 150 l 122 546 q 122 571 122 591 q 122 611 121 627 q 121 640 109 644 l 49 663 l 48 684 q 111 682 170 682 q 219 682 265 684 q 310 687 358 687 q 529 687 615 609 q 701 531 701 377 q 701 197 605 97 q 510 -3 337 -3 q 290 -3 253 -1 q 216 0 171 0 z m 218 43 q 247 40 274 38 q 302 37 330 37 q 458 37 526 113 q 593 189 593 346 q 593 498 529 572 q 465 645 327 645 q 305 645 278 644 q 251 643 218 641 z"},"^":{"x_min":0,"x_max":552,"ha":552,"o":"m 306 682 l 496 284 l 433 284 l 275 616 l 117 284 l 56 284 l 247 682 z"},"0":{"x_min":0,"x_max":539,"ha":539,"o":"m 137 233 q 137 136 172 81 q 207 26 272 26 q 338 26 370 75 q 402 125 402 226 q 402 326 367 376 q 333 427 267 427 q 199 427 168 378 q 137 330 137 233 z m 500 237 q 500 123 434 55 q 369 -13 264 -13 q 163 -13 101 49 q 39 111 39 220 q 39 332 104 398 q 169 464 275 464 q 378 464 439 404 q 500 344 500 237 z"},"F":{"x_min":0,"x_max":539,"ha":539,"o":"m 218 150 q 218 92 219 55 q 219 43 231 40 l 299 20 l 300 -1 q 229 0 171 0 q 113 0 50 -1 l 48 20 l 108 38 q 121 42 121 53 q 122 92 122 150 l 122 546 q 122 571 122 591 q 122 611 121 627 q 121 640 109 644 l 49 663 l 48 684 q 111 682 169 682 l 288 682 q 397 682 519 684 l 521 680 l 493 529 l 474 525 l 443 638 l 218 638 l 218 359 l 265 359 q 315 359 378 360 q 391 361 395 373 l 415 439 l 438 440 q 437 372 437 339 q 437 307 438 239 l 415 237 l 394 304 q 390 317 379 317 q 315 318 264 318 l 218 318 z"},"`":{"x_min":0,"x_max":410,"ha":410,"o":"m 233 510 l 200 510 l 84 692 l 182 692 z m 0 453 z"},"k":{"x_min":0,"x_max":535,"ha":535,"o":"m 540 -1 q 474 0 442 0 q 421 0 387 -1 q 369 29 344 63 q 276 157 199 247 l 375 418 l 321 433 l 319 453 q 382 451 412 451 q 438 451 514 453 l 516 433 q 466 420 445 410 q 423 401 395 374 l 290 277 l 447 81 q 474 48 489 38 q 503 27 539 19 z m 27 685 l 25 701 q 111 718 184 736 l 188 732 q 186 661 186 511 l 186 191 q 186 119 187 50 q 188 36 199 33 l 247 19 l 248 -1 q 189 0 141 0 q 93 0 28 -1 l 26 19 l 83 36 q 93 39 94 50 q 95 105 95 173 l 95 374 q 95 627 93 666 z"},"u":{"x_min":0,"x_max":569,"ha":569,"o":"m 389 43 q 312 -14 236 -14 q 160 -14 121 25 q 83 64 83 135 l 83 239 q 83 343 81 396 l 16 413 l 14 430 q 99 445 172 464 l 176 460 q 173 403 173 313 l 173 158 q 173 99 201 73 q 229 46 280 46 q 331 46 384 73 l 384 281 q 384 349 382 396 l 317 413 l 315 430 q 400 445 473 464 l 477 460 q 474 402 474 311 q 474 133 475 94 q 476 74 478 62 q 480 50 487 43 q 494 37 508 34 q 521 31 543 31 l 546 12 q 523 3 494 -5 q 465 -13 454 -13 q 405 -13 389 43 z"},"]":{"x_min":0,"x_max":345,"ha":345,"o":"m 166 708 l 45 735 l 44 756 l 238 756 l 238 -174 l 45 -174 l 44 -153 l 166 -125 z"},"U":{"x_min":0,"x_max":744,"ha":744,"o":"m 31 684 q 94 682 152 682 q 210 682 273 684 l 275 663 l 214 645 q 203 642 202 629 q 201 612 201 592 q 201 572 201 548 l 201 281 q 201 141 245 87 q 290 33 388 33 q 488 33 533 89 q 578 145 578 275 l 578 548 q 578 572 578 592 q 578 612 577 629 q 576 641 564 645 l 507 661 l 506 684 q 568 682 612 682 q 655 682 716 684 l 718 663 l 656 644 q 645 640 645 627 q 644 611 644 591 q 644 571 644 546 l 644 295 q 644 135 578 59 q 513 -18 373 -18 q 236 -18 170 51 q 105 120 105 266 l 105 546 q 105 571 105 591 q 104 611 104 627 q 104 640 92 644 l 32 663 z"},"o":{"x_min":0,"x_max":541,"ha":541,"o":"m 137 230 q 137 139 171 82 q 206 24 273 24 q 336 24 369 75 q 402 125 402 225 q 402 318 367 372 q 333 425 267 425 q 204 425 171 377 q 137 329 137 230 z m 501 235 q 501 124 434 55 q 367 -14 264 -14 q 163 -14 100 51 q 38 116 38 220 q 38 328 103 396 q 168 464 276 464 q 377 464 439 401 q 501 338 501 235 z"},"N":{"x_min":0,"x_max":749,"ha":749,"o":"m 167 544 l 167 150 q 167 92 167 54 q 168 41 180 38 l 238 21 l 239 -1 q 178 0 139 0 q 101 0 38 -1 l 36 20 l 96 38 q 108 42 109 53 q 110 92 110 150 l 110 546 q 110 595 109 627 q 108 640 97 644 l 37 663 l 36 684 q 99 682 135 682 q 157 682 180 684 l 590 171 l 590 548 q 590 595 589 629 q 588 641 576 645 l 519 661 l 518 684 q 580 682 619 682 q 658 682 719 684 l 721 663 l 659 644 q 648 640 647 627 q 646 595 646 546 l 646 0 l 605 -4 z"},"+":{"x_min":0,"x_max":552,"ha":552,"o":"m 45 255 l 247 255 l 247 456 l 306 456 l 306 255 l 506 255 l 506 196 l 306 196 l 306 -5 l 247 -5 l 247 196 l 45 196 z"},"G":{"x_min":0,"x_max":701,"ha":701,"o":"m 578 513 l 558 510 l 524 638 q 465 654 413 654 q 291 654 222 571 q 154 488 154 343 q 154 196 229 109 q 303 22 430 22 q 472 22 513 33 l 513 164 q 513 188 513 208 q 513 228 512 245 q 512 257 500 261 l 440 280 l 439 301 q 502 299 560 299 q 618 299 673 301 l 675 280 l 622 264 q 610 260 609 249 q 609 229 609 209 q 608 189 608 166 l 608 9 l 605 6 q 506 -18 422 -18 q 251 -18 150 73 q 48 164 48 326 q 48 499 153 597 q 258 695 440 695 q 519 695 605 675 l 608 671 z"},"q":{"x_min":0,"x_max":553,"ha":553,"o":"m 380 412 q 341 422 304 422 q 218 422 176 371 q 134 320 134 228 q 134 144 173 94 q 211 45 284 45 q 335 45 380 62 z m 473 460 q 470 367 470 238 l 470 -83 q 470 -164 471 -184 q 471 -197 482 -200 l 538 -217 l 539 -237 q 473 -236 426 -236 q 377 -236 312 -237 l 310 -217 l 366 -201 q 378 -197 379 -186 q 380 -126 380 -38 l 380 32 q 306 -14 235 -14 q 146 -14 91 50 q 37 113 37 208 q 37 326 107 395 q 176 464 300 464 q 351 464 419 452 q 443 458 469 464 z"},"d":{"x_min":0,"x_max":567,"ha":567,"o":"m 379 410 q 347 420 306 420 q 222 420 178 373 q 134 325 134 229 q 134 145 173 95 q 212 45 284 45 q 330 45 379 70 z m 309 701 q 396 718 468 736 l 473 732 q 470 627 470 507 l 470 242 q 470 174 470 108 q 470 83 472 68 q 474 53 480 45 q 487 37 501 34 q 514 31 539 31 l 541 12 q 520 3 490 -5 q 459 -13 449 -13 q 399 -13 382 42 q 307 -14 235 -14 q 145 -14 91 51 q 37 115 37 208 q 37 330 109 396 q 181 462 310 462 q 341 462 379 456 q 379 563 377 666 l 312 685 z"},"1":{"x_min":0,"x_max":313,"ha":313,"o":"m 17 406 l 15 427 q 113 441 211 459 l 215 455 q 209 370 209 279 l 209 160 q 209 95 210 56 q 211 42 224 38 l 302 18 l 303 -1 q 213 0 165 0 q 117 0 27 -1 l 25 18 l 105 38 q 118 42 118 54 q 119 93 119 142 l 119 223 q 119 321 117 396 z"},"5":{"x_min":0,"x_max":476,"ha":476,"o":"m 64 168 l 93 453 q 154 451 239 451 q 337 451 423 453 l 426 449 l 414 369 l 132 375 l 118 238 q 160 245 196 245 q 308 245 375 190 q 441 136 441 42 q 441 -80 330 -152 q 218 -224 49 -225 l 44 -188 q 177 -184 261 -128 q 345 -72 345 22 q 345 95 296 135 q 247 175 158 175 q 113 175 67 165 z"}}}
